<?xml version="1.0" encoding="UTF-8"?>
<svg width="56" height="57" viewBox="0 0 56 57" fill="none" xmlns="http://www.w3.org/2000/svg"><path fill-rule="evenodd" clip-rule="evenodd" d="M23.3486 33.9697L23.7294 35.545H11.1091C9.82281 32.9967 9.09432 30.1151 9.09432 27.0609C9.09432 16.6963 17.4415 8.29395 27.7381 8.29395C38.035 8.29395 46.3818 16.6963 46.3818 27.0609C46.3818 30.1147 45.6553 32.9967 44.3694 35.545H32.2702L32.651 33.9697C32.99 32.5666 33.5257 31.219 34.242 29.9675L36.8595 25.3939L27.9998 21.883L19.1401 25.3939L21.7576 29.9675C22.4739 31.219 23.0096 32.5666 23.3486 33.9697ZM18.5587 32.0241L19.37 31.8717L18.5587 31.7194C18.3379 31.6781 18.1653 31.5043 18.1243 31.2821L17.9729 30.4655L17.8219 31.2821C17.7809 31.5043 17.6083 31.6781 17.3875 31.7194L16.5763 31.8717L17.3875 32.0241C17.6083 32.0654 17.7809 32.2392 17.8219 32.4614L17.9729 33.278L18.1243 32.4614C18.1653 32.2392 18.3379 32.0654 18.5587 32.0241ZM38.1777 32.4614C38.2187 32.2392 38.3914 32.0654 38.6121 32.0241L39.4234 31.8717L38.6121 31.7194C38.3914 31.6781 38.2187 31.5043 38.1777 31.2821L38.0263 30.4655L37.875 31.2821C37.834 31.5043 37.6613 31.6781 37.4405 31.7194L36.6293 31.8717L37.4405 32.0241C37.6613 32.0654 37.834 32.2392 37.875 32.4614L38.0263 33.278L38.1777 32.4614ZM42.8553 27.7696C42.8143 27.9918 42.6416 28.1656 42.4209 28.2068L41.6096 28.3592L42.4209 28.5116C42.6416 28.5529 42.8143 28.7267 42.8553 28.9489L43.0067 29.7655L43.158 28.9489C43.199 28.7267 43.3717 28.5529 43.5925 28.5116L44.4037 28.3592L43.5925 28.2068C43.3717 28.1656 43.199 27.9918 43.158 27.7696L43.0067 26.9529L42.8553 27.7696ZM40.153 21.5135L40.0017 22.3302C39.9603 22.552 39.7876 22.7258 39.5673 22.7674L38.756 22.9198L39.5673 23.0722C39.788 23.1135 39.9607 23.2873 40.0017 23.5095L40.153 24.3261L40.304 23.5095C40.345 23.2873 40.5177 23.1135 40.7384 23.0722L41.5497 22.9198L40.7384 22.7674C40.5177 22.7262 40.345 22.5524 40.304 22.3302L40.153 21.5135ZM37.875 14.9579C37.834 15.1801 37.6613 15.3539 37.4405 15.3952L36.6293 15.5476L37.4405 15.6999C37.6613 15.7412 37.834 15.915 37.875 16.1372L38.0263 16.9538L38.1777 16.1372C38.2187 15.915 38.3914 15.7412 38.6121 15.6999L39.4234 15.5476L38.6121 15.3952C38.3914 15.3539 38.2187 15.1801 38.1777 14.9579L38.0263 14.1413L37.875 14.9579ZM31.3537 11.6097C31.3127 11.8319 31.14 12.0057 30.9193 12.0469L30.108 12.1993L30.9193 12.3517C31.14 12.3929 31.3127 12.5667 31.3537 12.789L31.5051 13.6056L31.6564 12.789C31.6974 12.5667 31.8701 12.3929 32.0908 12.3517L32.9021 12.1993L32.0908 12.0469C31.8701 12.0057 31.6974 11.8319 31.6564 11.6097L31.5051 10.793L31.3537 11.6097ZM24.344 11.6097C24.303 11.8319 24.1303 12.0057 23.9096 12.0469L23.0983 12.1993L23.9096 12.3517C24.1303 12.3929 24.303 12.5667 24.344 12.789L24.495 13.6056L24.6464 12.789C24.6874 12.5667 24.86 12.3929 25.0808 12.3517L25.892 12.1993L25.0808 12.0469C24.86 12.0057 24.6874 11.8319 24.6464 11.6097L24.495 10.793L24.344 11.6097ZM25.3374 18.1054H21.6638V19.0414L22.9194 19.9065V20.7036H22.3844V22.9198L27.9998 20.6941L33.6156 22.9202V20.704H33.0807V19.9069L34.3362 19.0418V18.1054H30.6623V16.5606H28.3719V14.4774H27.6277V16.5606H25.3374V18.1054ZM17.8219 14.9579C17.7809 15.1801 17.6083 15.3539 17.3875 15.3952L16.5763 15.5476L17.3875 15.6999C17.6083 15.7412 17.7809 15.915 17.8219 16.1372L17.9729 16.9538L18.1243 16.1372C18.1653 15.915 18.3379 15.7412 18.5587 15.6999L19.37 15.5476L18.5587 15.3952C18.3379 15.3539 18.1653 15.1801 18.1243 14.9579L17.9729 14.1413L17.8219 14.9579ZM15.6952 22.3302C15.6542 22.5524 15.4816 22.7262 15.2608 22.7674L14.4495 22.9198L15.2608 23.0722C15.4816 23.1135 15.6542 23.2873 15.6952 23.5095L15.8466 24.3261L15.998 23.5095C16.039 23.2873 16.2116 23.1135 16.4324 23.0722L17.2436 22.9198L16.4324 22.7674C16.2116 22.7262 16.039 22.5524 15.998 22.3302L15.8466 21.5135L15.6952 22.3302ZM12.8416 27.7696C12.8006 27.9918 12.6279 28.1656 12.4072 28.2068L11.5959 28.3592L12.4072 28.5116C12.6279 28.5529 12.8006 28.7267 12.8416 28.9489L12.993 29.7655L13.1443 28.9489C13.1853 28.7267 13.358 28.5529 13.5788 28.5116L14.39 28.3592L13.5788 28.2068C13.358 28.1656 13.1853 27.9918 13.1443 27.7696L12.993 26.9529L12.8416 27.7696ZM28.6551 35.5449H27.3447L27.9999 27.0941L28.6551 35.5449ZM47.3933 37.9002H42.9617C42.9829 37.8705 43.0025 37.8396 43.0221 37.8086L43.0221 37.8085C43.0397 37.7808 43.0572 37.753 43.076 37.726C43.2176 37.5217 43.352 37.3122 43.4856 37.1019C43.4923 37.0912 43.4998 37.0804 43.5065 37.0697H11.9586H8.60668C8.27161 37.0697 8 37.3431 8 37.6804C8 38.0177 8.27161 38.2911 8.60668 38.2911H12.8002H12.8053H15.0546C15.3897 38.2911 15.6617 38.5645 15.6617 38.9018C15.6617 39.2391 15.3901 39.5125 15.0546 39.5125H13.8074H13.7955H11.6247C11.2896 39.5125 11.018 39.7859 11.018 40.1232C11.018 40.4604 11.2896 40.7338 11.6247 40.7338H14.9766H15.0034H22.7163C23.0514 40.7338 23.323 41.0072 23.323 41.3449C23.323 41.6822 23.0514 41.9556 22.7163 41.9556H16.4462C17.8574 43.0313 19.4251 43.9091 21.108 44.5519H20.9846H18.2737C17.9386 44.5519 17.667 44.8253 17.667 45.1626C17.667 45.4999 17.9386 45.7733 18.2737 45.7733H26.4017H29.074H37.692C38.0271 45.7733 38.2991 45.4999 38.2991 45.1626C38.2991 44.8253 38.0271 44.5519 37.692 44.5519H34.4911H34.3811H29.5928C29.2577 44.5519 28.9861 44.2785 28.9861 43.9412C28.9861 43.6039 29.2577 43.3305 29.5928 43.3305H36.9718C37.8742 42.8155 38.7229 42.2187 39.5231 41.5647H39.568H42.8419C43.1769 41.5647 43.4486 41.2913 43.4486 40.9541C43.4486 40.6168 43.1769 40.3434 42.8419 40.3434H40.9079H40.8941H35.2567C34.9216 40.3434 34.65 40.07 34.65 39.7323C34.65 39.395 34.9216 39.1216 35.2567 39.1216H42.0184H42.0219H47.3933C47.7284 39.1216 48 38.8482 48 38.5109C48 38.1736 47.7284 37.9002 47.3933 37.9002ZM30.7465 25.3219C30.8183 24.8794 31.1691 24.5326 31.5306 24.5465C31.8917 24.5604 32.1266 24.9302 32.0549 25.3723C31.9831 25.8147 31.6323 26.1615 31.2708 26.1476C30.9097 26.1338 30.6748 25.7639 30.7465 25.3219ZM33.4334 25.9544C33.493 25.5877 33.2982 25.2814 32.9986 25.2695C32.699 25.258 32.4081 25.5456 32.3486 25.9123C32.2891 26.2789 32.4838 26.5857 32.7834 26.5972C33.083 26.6087 33.3743 26.321 33.4334 25.9544ZM34.5909 26.5802C34.5435 26.8735 34.3106 27.1036 34.0709 27.0945C33.8312 27.085 33.6755 26.8397 33.7228 26.5465C33.7701 26.2533 34.0031 26.0227 34.2428 26.0322C34.4824 26.0418 34.6386 26.287 34.5909 26.5802ZM25.659 19.2236H23.8599V20.2787H25.659V19.2236ZM30.3401 19.2236H32.1392V20.2787H30.3401V19.2236ZM28.8995 19.2236H27.1003V20.2787H28.8995V19.2236ZM22.8418 47.0724H33.158C33.4931 47.0724 33.7647 47.3462 33.7647 47.6831C33.7647 48.0204 33.4931 48.2938 33.158 48.2938H22.8418C22.5067 48.2938 22.2351 48.0204 22.2351 47.6831C22.2351 47.3458 22.5067 47.0724 22.8418 47.0724Z" fill="#002870"></path></svg>